PathFileType	4	(X/Y/Z)	C:/Users/opensim2020/Desktop/walking_exp_matlab/subject03_walking11_straight_02.trc	
DataRate	CameraRate	NumFrames	NumMarkers	Units	OrigDataRate	OrigDataStartFrame	OrigNumFrames	
100.00	100.00	6	46	mm	100.00	2111	357	
Frame#	Time	LFHD			RFHD			LBHD			RBHD			C7			T10			CLAV			STRN			RBAK			LSHO			LUPA			LELB			LFRM			LWRA			LWRB			LFIN			RSHO			RUPA			RELB			RFRM			RWRA			RWRB			RFIN			LASI			RASI			LPSI			RPSI			LTHI			LKNE			LTIB			LANK			LHEE			LTOE			RTHI			RKNE			RTIB			RANK			RHEE			RTOE			*39			*40			*41			*42			*43			*44			*45			
		X1	Y1	Z1	X2	Y2	Z2	X3	Y3	Z3	X4	Y4	Z4	X5	Y5	Z5	X6	Y6	Z6	X7	Y7	Z7	X8	Y8	Z8	X9	Y9	Z9	X10	Y10	Z10	X11	Y11	Z11	X12	Y12	Z12	X13	Y13	Z13	X14	Y14	Z14	X15	Y15	Z15	X16	Y16	Z16	X17	Y17	Z17	X18	Y18	Z18	X19	Y19	Z19	X20	Y20	Z20	X21	Y21	Z21	X22	Y22	Z22	X23	Y23	Z23	X24	Y24	Z24	X25	Y25	Z25	X26	Y26	Z26	X27	Y27	Z27	X28	Y28	Z28	X29	Y29	Z29	X30	Y30	Z30	X31	Y31	Z31	X32	Y32	Z32	X33	Y33	Z33	X34	Y34	Z34	X35	Y35	Z35	X36	Y36	Z36	X37	Y37	Z37	X38	Y38	Z38	X39	Y39	Z39	X40	Y40	Z40	X41	Y41	Z41	X42	Y42	Z42	X43	Y43	Z43	X44	Y44	Z44	X45	Y45	Z45	X46	Y46	Z46	

313	3.120	-906.51147	-1015.06274	1621.17822	-1039.32068	-1015.36462	1628.72522	-914.94720	-889.70166	1568.72461	-1044.90161	-896.21649	1576.51270	-964.03448	-865.42310	1417.66089	-967.31812	-831.59491	1103.67224	-975.31207	-989.27191	1342.43982	-973.20453	-1030.76477	1176.90491	-1058.13660	-806.14026	1243.31360	-818.00238	-959.26544	1377.24670	-740.40527	-993.86743	1189.12903	-726.95428	-1033.23608	1073.00500	-734.07507	-1096.51563	959.81818	-769.08173	-1144.91199	852.85382	-714.71362	-1132.31934	852.91345	-727.50732	-1173.40918	780.49768	-1131.67688	-930.63770	1366.97827	-1208.12756	-925.18933	1145.61084	-1224.32019	-941.67218	1034.18054	-1228.65649	-962.60986	898.83258	-1195.70508	-998.07007	804.90314	-1238.61414	-964.82672	798.69690	-1229.95068	-990.62213	728.34503	-853.73926	-998.76868	941.45502	-1091.32312	-996.51447	942.37585	-904.34119	-835.63666	963.61096	-1052.73364	-835.78101	965.90442	-826.20190	-928.99316	638.37054	-868.93359	-922.58899	461.96503	-873.33539	-858.42157	275.44647	-921.57227	-832.47980	66.90486	-960.77948	-793.62384	32.70609	-936.51501	-985.85742	29.55260	-1145.13757	-1010.24774	652.13037	-1116.59888	-1078.78186	484.57108	-1121.74683	-1024.58582	299.99075	-1079.70874	-982.22339	86.63934	-1025.58838	-935.67181	57.92241	-1068.63684	-1112.97449	38.39771	-957.72144	-929.51373	1678.41541																		 
314	3.130	-906.84174	-1020.31622	1620.74109	-1039.60754	-1020.64246	1628.12219	-915.07397	-895.17578	1567.92065	-1045.22705	-901.56293	1575.61963	-964.26910	-871.28558	1417.01318	-967.54712	-837.10071	1103.09399	-975.33490	-994.90527	1341.72656	-973.05499	-1036.28992	1176.18176	-1058.12476	-811.60413	1242.64758	-818.07770	-965.06152	1376.70227	-740.20209	-1000.15509	1188.94116	-726.46191	-1040.13708	1073.09229	-733.96399	-1104.96606	960.87170	-769.59326	-1155.23828	855.06732	-715.30042	-1142.47302	854.47632	-728.50574	-1184.93958	783.01227	-1131.68005	-936.21674	1366.11438	-1207.97021	-930.17035	1144.70789	-1224.14026	-946.47925	1033.23315	-1228.32166	-967.33539	897.86121	-1195.36072	-1002.93744	803.95544	-1238.11963	-969.52777	797.68536	-1229.49353	-995.43549	727.44092	-853.33765	-1004.87976	941.17462	-1091.11853	-1002.05798	941.52496	-904.52985	-840.90417	962.86371	-1052.84692	-841.27820	964.98517	-826.52850	-933.09155	638.06165	-868.88049	-924.90704	461.44888	-873.35730	-859.84515	275.51697	-921.64246	-832.64539	67.06886	-960.87872	-793.63599	32.90238	-936.43073	-985.76910	29.43435	-1145.09985	-1014.83356	651.05371	-1115.48608	-1084.67590	483.77451	-1120.78857	-1037.27136	297.90341	-1078.69885	-1004.46307	82.81218	-1024.24768	-959.38666	52.52357	-1068.27490	-1137.02649	39.08343	-957.08203	-935.16083	1677.00964																		 
315	3.140	-907.12994	-1025.62964	1620.27466	-1039.89197	-1025.90625	1627.53394	-915.51501	-900.43335	1567.09912	-1045.42676	-907.00531	1574.64551	-964.36475	-876.81299	1416.45154	-967.93408	-842.36981	1102.56934	-975.35419	-1000.57428	1340.99890	-972.94885	-1041.94592	1175.48181	-1058.00537	-817.33478	1241.86853	-818.15265	-970.91162	1376.07568	-740.03406	-1006.35400	1188.65259	-725.95868	-1046.82007	1073.10095	-733.89429	-1113.16858	961.85901	-770.21393	-1165.20337	857.18311	-715.99823	-1152.25598	855.94507	-729.58325	-1196.13489	785.49750	-1131.95178	-941.71161	1365.26392	-1207.86877	-935.34210	1143.80896	-1223.97180	-951.45917	1032.27295	-1227.97632	-972.19366	896.85120	-1194.91626	-1007.81622	802.88641	-1237.43542	-974.14978	796.62372	-1228.93433	-1000.25671	726.46173	-853.32892	-1010.47321	940.71844	-1091.15320	-1007.68011	940.59021	-904.64539	-846.27051	962.10126	-1053.01038	-846.88757	964.02594	-826.12311	-937.34918	637.70605	-868.82959	-927.83661	461.20898	-873.41107	-861.30219	275.53455	-921.59766	-832.47803	67.41968	-960.97125	-793.61139	33.14431	-936.40015	-985.75568	29.35964	-1144.94080	-1018.98810	649.81860	-1114.43958	-1090.17761	482.99368	-1120.00000	-1049.56860	296.07605	-1077.95459	-1026.19031	79.54063	-1023.29871	-982.58661	47.92653	-1068.00598	-1160.35327	39.94491	-957.58307	-940.13214	1676.28882																		 
316	3.150	-907.43970	-1030.83167	1620.00220	-1040.19690	-1031.18005	1626.90198	-915.79395	-906.05237	1566.23169	-1045.72986	-912.49036	1573.70166	-964.49561	-882.56964	1415.79529	-968.03644	-847.91736	1101.84180	-975.49237	-1006.23560	1340.23474	-972.89178	-1047.35486	1174.54614	-1058.17456	-822.92188	1241.21204	-818.42334	-976.60693	1375.39771	-739.95825	-1012.45508	1188.27295	-725.63733	-1053.33093	1073.05469	-734.03363	-1121.04980	962.78003	-770.96808	-1174.81006	859.25018	-716.80328	-1161.68237	857.32141	-730.79700	-1206.91101	787.91821	-1131.82703	-947.33429	1364.34436	-1207.73181	-940.62427	1142.87476	-1223.78320	-956.57471	1031.30542	-1227.64990	-977.23206	895.85956	-1194.52295	-1012.95129	801.94922	-1236.91467	-979.08435	795.61340	-1228.40137	-1005.17023	725.45050	-853.10065	-1015.68994	940.01642	-1091.23450	-1013.39703	939.68390	-904.77985	-851.75122	961.32147	-1053.20740	-852.52570	963.09961	-826.19373	-941.58356	637.36230	-868.84467	-930.65271	460.83795	-873.32648	-862.99158	275.57053	-921.41479	-832.64282	67.81783	-961.05853	-793.64795	33.41397	-936.36804	-985.76709	29.35255	-1144.74268	-1022.81952	648.46869	-1113.47021	-1095.38245	482.10818	-1119.28333	-1061.40125	294.46603	-1077.60852	-1047.54102	76.76427	-1022.99524	-1005.45331	43.92300	-1067.84363	-1182.96313	40.93331	-958.11853	-945.33215	1675.43518																		 
317	3.160	-907.73499	-1036.29956	1619.62402	-1040.59827	-1036.60803	1626.28101	-915.96606	-911.69849	1565.43127	-1046.13611	-917.98511	1572.73853	-964.95270	-888.44098	1415.13782	-968.34882	-853.49579	1101.29773	-975.59814	-1012.01819	1339.47888	-972.93567	-1052.98560	1173.77478	-1058.37695	-828.56030	1240.60803	-818.65558	-982.44183	1374.69189	-739.94586	-1018.45422	1187.90063	-725.30267	-1059.44910	1072.76208	-734.18805	-1128.65564	963.56506	-771.80554	-1184.01672	861.19476	-717.72467	-1170.74536	858.56525	-732.09680	-1217.27136	790.23059	-1132.28406	-953.38910	1363.62219	-1207.63196	-946.16748	1141.95630	-1223.54114	-961.94867	1030.37402	-1227.28247	-982.41949	894.86688	-1194.12500	-1018.12634	800.96735	-1236.32666	-984.12994	794.45905	-1227.79517	-1010.21619	724.40845	-853.04095	-1021.18085	939.38544	-1091.33765	-1019.20288	938.80457	-904.99530	-857.35242	960.61279	-1053.41394	-858.21478	962.22058	-826.31256	-946.00250	636.94666	-868.79718	-934.22473	460.60303	-873.30383	-864.64526	275.60181	-921.89880	-833.10840	67.66136	-961.12256	-793.63727	33.78418	-936.37317	-985.79456	29.34022	-1144.42261	-1026.58545	647.02496	-1112.73511	-1100.18506	481.16849	-1118.67126	-1072.74451	293.11050	-1077.48718	-1068.13940	74.73400	-1022.61139	-1027.22571	41.07837	-1067.69653	-1204.74792	41.89334	-959.04694	-950.43494	1674.90796																		 
318	3.170	-908.13525	-1041.83936	1618.92188	-1041.01990	-1042.02429	1625.67615	-916.45966	-917.20624	1564.54138	-1046.44653	-923.57147	1571.77405	-964.81866	-894.10974	1414.44604	-968.52496	-859.18011	1100.56018	-975.87982	-1017.72144	1338.72925	-973.05060	-1058.64087	1173.04761	-1058.62292	-834.35504	1239.89929	-819.06775	-988.14673	1374.03064	-740.02563	-1024.36084	1187.45251	-725.12500	-1065.49695	1072.49890	-734.46429	-1135.94702	964.22852	-772.75256	-1192.82410	862.99994	-718.77625	-1179.42322	859.71240	-733.50476	-1227.16565	792.41132	-1132.58508	-959.25555	1362.78235	-1207.57617	-951.86780	1141.04614	-1223.42969	-967.42865	1029.37427	-1226.92847	-987.77679	893.85278	-1193.73572	-1023.43817	799.96082	-1235.82959	-989.35272	793.44672	-1227.22180	-1015.34448	723.37964	-853.51013	-1025.75049	938.47961	-1091.44678	-1025.03748	937.94910	-905.13831	-863.09546	959.91327	-1053.60217	-864.02417	961.37268	-826.33441	-950.56726	636.57190	-868.82751	-937.10242	460.18390	-873.21271	-866.50079	275.69556	-921.77136	-833.36591	67.87836	-961.15247	-793.68750	34.18322	-936.36798	-985.82001	29.29422	-1144.51550	-1030.55139	645.72253	-1111.59229	-1105.07605	480.08823	-1118.14136	-1083.56409	291.97461	-1077.38892	-1087.98730	73.30050	-1022.35730	-1048.05127	39.12267	-1067.59546	-1225.58557	42.75612	-959.85223	-955.42059	1674.29370																		 
